<svg width="100" height="100" viewBox="0 0 100 100" fill="none" xmlns="http://www.w3.org/2000/svg">
<path d="M91.6877 43.181C78.0754 43.1743 64.463 43.1776 50.8509 43.1792C50.8526 48.8252 50.8442 54.4712 50.8542 60.1154C58.7375 60.1136 66.6208 60.1121 74.5025 60.1154C73.5889 65.5257 70.3736 70.4734 65.814 73.5193C62.9477 75.4465 59.6545 76.6974 56.2594 77.2922C52.8424 77.8753 49.3117 77.9499 45.9032 77.2599C42.437 76.5683 39.1283 75.1242 36.2419 73.0885C31.6266 69.846 28.1043 65.1019 26.2958 59.7626C24.4465 54.332 24.433 48.2893 26.3043 42.8638C27.6026 39.0399 29.7637 35.5076 32.6027 32.633C36.1045 29.0481 40.6572 26.4854 45.5624 25.4345C49.7625 24.5379 54.1915 24.709 58.3036 25.9531C61.7987 27.0142 65.0208 28.9294 67.6599 31.4498C70.3277 28.7971 72.982 26.1293 75.6449 23.4716C77.0416 22.0411 78.5095 20.6732 79.862 19.2038C75.8178 15.4612 71.077 12.4527 65.8971 10.5509C56.5713 7.11876 46.054 7.04591 36.6656 10.2953C26.0855 13.9174 17.0767 21.8295 12.0818 31.8299C10.3428 35.2758 9.07315 38.9539 8.31045 42.737C6.39171 52.1626 7.72908 62.2123 12.0767 70.7972C14.9022 76.4007 18.9531 81.3823 23.8669 85.2875C28.5027 88.9842 33.9062 91.7149 39.6353 93.2387C46.8643 95.1777 54.5594 95.1336 61.8361 93.4777C68.4125 91.9641 74.6348 88.8216 79.6027 84.235C84.8538 79.4094 88.5995 73.0515 90.5826 66.2191C92.7455 58.7664 93.0438 50.8101 91.6877 43.181Z" fill="white"/>
</svg>
