<svg width="69" height="42" viewBox="0 0 69 42" fill="none" xmlns="http://www.w3.org/2000/svg">
<path d="M7.70249 1.00903V40.9938H3.92027C3.56247 40.9929 3.21799 40.8587 2.95481 40.6175C2.40738 40.1179 1.88219 39.5951 1.37922 39.0493C1.13604 38.7879 1.00066 38.4451 1 38.0889V3.91388C1.00066 3.55775 1.13604 3.2149 1.37922 2.95352C1.88219 2.40832 2.40738 1.88557 2.95481 1.38526C3.21799 1.14414 3.56247 1.0099 3.92027 1.00903H7.70249Z" fill="white" stroke="white" stroke-miterlimit="10"/>
<path d="M34.5015 6.0987C32.8219 7.59487 31.4059 9.36011 30.3122 11.3213C29.5513 10.6042 28.7089 9.97784 27.802 9.45502C26.7518 8.85127 25.6236 8.39293 24.4488 8.09269V8.09269C22.4687 7.58412 20.3977 7.53323 18.3948 7.94394C16.3918 8.35464 14.51 9.21603 12.8934 10.4621C11.2769 11.7081 9.96863 13.3058 9.06886 15.1326C8.16908 16.9594 7.70169 18.9669 7.70252 21.0011V6.0987C10.3904 3.7107 13.6735 2.08419 17.209 1.38898C20.7445 0.693762 24.4028 0.955324 27.802 2.14636C28.0867 2.24603 28.3677 2.35229 28.6451 2.46516C30.7934 3.33103 32.7748 4.56036 34.5015 6.0987V6.0987Z" fill="white" stroke="white" stroke-miterlimit="10"/>
<path d="M28.661 39.5538L27.802 39.8558C24.4035 41.0519 20.7441 41.3161 17.2075 40.6207C13.671 39.9253 10.3879 38.2959 7.70253 35.9034V35.9034V21.001C7.69933 23.3405 8.31737 25.6394 9.4941 27.6651C10.6741 29.6903 12.3661 31.3733 14.402 32.5471C16.4384 33.7178 18.7495 34.3325 21.1015 34.3292H24.6847C25.5761 35.8622 26.6191 37.303 27.7981 38.6301L28.661 39.5538Z" fill="white" stroke="white" stroke-miterlimit="10"/>
<path d="M68 21.001V38.0885C67.9994 38.4446 67.864 38.7875 67.6208 39.0489C67.1185 39.5941 66.5933 40.1168 66.0452 40.6171C65.782 40.8582 65.4375 40.9925 65.0797 40.9934H61.2975V21.001C61.3007 18.6614 60.6827 16.3625 59.506 14.3369C58.326 12.3116 56.634 10.6286 54.598 9.45486C51.5573 7.71382 47.9526 7.22488 44.5542 8.09253V8.09253C43.3797 8.39286 42.2519 8.8512 41.202 9.45486C39.1642 10.6246 37.472 12.3076 36.2958 14.3345C35.1195 16.3613 34.5007 18.6606 34.5015 21.001V40.9934H30.7193C30.3628 40.993 30.0194 40.8599 29.7568 40.6201C29.3733 40.2709 29.0017 39.9099 28.642 39.537L27.799 38.6301V21.001C27.8006 17.019 28.9965 13.128 31.2338 9.8259C33.4711 6.52382 36.648 3.96087 40.358 2.465C40.6353 2.35214 40.9163 2.24587 41.201 2.1462C44.233 1.07828 47.4784 0.750034 50.6645 1.18905C53.8505 1.62806 56.884 2.8215 59.51 4.66905C62.136 6.5166 64.2777 8.96426 65.7551 11.8063C67.2325 14.6482 68.0024 17.8015 68 21.001Z" fill="white" stroke="white" stroke-miterlimit="10"/>
<path d="M54.6 9.45497V21.0011C54.5998 19.2337 53.8938 17.5388 52.6375 16.2891C51.3811 15.0394 49.6773 14.3372 47.9005 14.337C47.9005 14.337 47.0654 14.3696 47.0694 14.3885C45.4487 14.5897 43.9576 15.3726 42.8763 16.5903C41.7949 17.8079 41.1978 19.3764 41.197 21.0011C41.2023 17.6145 40.3383 14.2827 38.6868 11.3212C39.4477 10.6041 40.2902 9.97779 41.197 9.45497C42.2485 8.85089 43.378 8.39254 44.5542 8.09264C47.9532 7.22445 51.5587 7.71341 54.6 9.45497V9.45497Z" fill="white" stroke="white" stroke-miterlimit="10"/>
</svg>
